<svg xmlns="http://www.w3.org/2000/svg" width="76" height="17.659" viewBox="0 0 76 17.659">
  <g id="Groupe_2259" transform="translate(-199.402 -3260.887)">
    <g id="Group_162303" data-name="Group 162303" transform="translate(227.948 3261.504)">
      <path id="Path_774" data-name="Path 774" d="M564.985,3276.16l7.1,8.7h-3.318l-6.684-8.068v8.068H559.3V3267.9h2.782v7.6l6.445-7.6h3.318Z" transform="translate(-559.3 -3267.892)" fill="#605076"/>
      <path id="Path_775" data-name="Path 775" d="M751.979,3275.972a4.32,4.32,0,0,1,2.375,3.942,4.54,4.54,0,0,1-1.479,3.462,5.1,5.1,0,0,1-3.606,1.383H742V3267.8h6.732a4.9,4.9,0,0,1,3.51,1.359,4.4,4.4,0,0,1,1.455,3.342A4.1,4.1,0,0,1,751.979,3275.972Zm-3.246-5.549h-3.95v4.462h3.95a2.105,2.105,0,0,0,1.551-.64,2.3,2.3,0,0,0,0-3.166A2.073,2.073,0,0,0,748.732,3270.423Zm-3.95,11.73h4.486a2.209,2.209,0,0,0,1.639-.688,2.327,2.327,0,0,0,.664-1.687,2.361,2.361,0,0,0-.664-1.687,2.18,2.18,0,0,0-1.639-.688h-4.486Z" transform="translate(-727.392 -3267.8)" fill="#605076"/>
      <path id="Path_776" data-name="Path 776" d="M940.233,3267.9h2.982v16.959h-2.782V3272.77l-5.157,8.531h-.336l-5.157-8.555v12.113H927V3267.9h3.006l5.109,8.476Z" transform="translate(-897.6 -3267.892)" fill="#605076"/>
    </g>
    <rect id="Rectangle_147782" width="8.502" height="9.156" transform="translate(199.402 3269.389)" fill="#f88122"/>
    <path id="Rectangle_147785" d="M307,3369h8.635v4.318a4.32,4.32,0,0,1-4.318,4.317H307V3369Z" transform="translate(-99.226 -99.404)" fill="#605076"/>
    <rect id="Rectangle_147786" width="8.502" height="8.502" transform="translate(207.904 3260.887)" fill="#0fb9c5"/>
    <circle id="Ellipse_435" data-name="Ellipse 435" cx="0.88" cy="0.88" r="0.88" transform="translate(273.643 3276.712)" fill="none"/>
  </g>
</svg>
